<svg width="64" height="64" viewBox="0 0 64 64" xmlns="http://www.w3.org/2000/svg">
  <defs>
    <linearGradient id="g1" x1="0%" y1="0%" x2="100%" y2="100%">
      <stop offset="0%" stop-color="#38bdf8"/>
      <stop offset="50%" stop-color="#a855f7"/>
      <stop offset="100%" stop-color="#22c55e"/>
    </linearGradient>
  </defs>
  <rect x="4" y="4" width="56" height="56" rx="18" fill="#020617"/>
  <rect x="4" y="4" width="56" height="56" rx="18" fill="url(#g1)" opacity="0.18"/>
  <path d="M20 42V22h9c4.5 0 7.5 2.7 7.5 6.7 0 4.1-3 6.8-7.5 6.8h-5.2V42H20zm4.8-10.1h4.1c2.2 0 3.6-1.2 3.6-3.2 0-2-1.4-3.2-3.6-3.2h-4.1v6.4z" fill="#e5e7eb"/>
  <path d="M36.5 42l5.2-9.1-5-8.9h4.4l2.9 5.6 2.9-5.6h4.3l-5 8.8 5.2 9.2h-4.4l-3.1-5.9-3.1 5.9h-4.3z" fill="#e5e7eb"/>
</svg>
